<svg width="24" height="24" viewBox="0 0 24 24" fill="none" xmlns="http://www.w3.org/2000/svg">
<g clip-path="url(#clip0_53110_20900)">
<path d="M6.4704 1.34721C4.805 2.21265 3.36555 3.45627 2.26746 4.97836C1.16938 6.50045 0.443216 8.25866 0.1472 10.112H0.8432C5.3312 10.008 8.8496 9.61921 11.7232 8.73921C10.4752 6.52641 8.952 4.35521 7.1248 2.14721L7.1232 2.14561L6.4704 1.34721ZM0.0032 11.712L0 12C0 15.2272 1.2736 18.1568 3.3456 20.3136L3.6032 19.7952C3.61751 19.7665 3.63354 19.7388 3.6512 19.712C6.304 15.6768 9.3056 13.2768 12.6624 12.2C12.8896 12.1264 13.12 12.0592 13.3504 11.9984C13.0816 11.3823 12.7951 10.774 12.4912 10.1744C9.3472 11.1872 5.568 11.6032 0.8704 11.7104H0.0048L0.0032 11.712Z" fill="#212121"/>
<path d="M4.576 21.4288C6.69009 23.0982 9.30625 24.0043 12 24C13.4288 24 14.8 23.7504 16.0688 23.2928V22.1408C15.6784 19.0448 14.992 16.2048 13.96 13.4944C13.688 13.5616 13.4176 13.6384 13.1504 13.7232C10.2352 14.6592 7.5104 16.768 5.0144 20.552L4.5776 21.4288H4.576ZM17.6688 22.5792C19.2155 21.7493 20.5616 20.5907 21.6125 19.1848C22.6635 17.7789 23.3937 16.1599 23.752 14.4416L22.848 14.0336C20.2464 13.2688 17.8224 12.9552 15.5632 13.2096C16.584 15.9616 17.2704 18.8512 17.6624 21.9904C17.6672 22.0224 17.6688 22.0544 17.6688 22.0896V22.5792ZM23.9744 12.7872C24.1856 9.64431 23.1478 6.54507 21.0864 4.16321L20.6112 4.68961C18.7392 6.96641 16.6016 8.54561 14.0032 9.62081C14.3424 10.2992 14.6592 10.9824 14.952 11.6752C17.6272 11.2912 20.44 11.6528 23.3536 12.5152C23.3891 12.5256 23.4239 12.5384 23.4576 12.5536L23.9744 12.7872ZM19.9616 3.02081C17.7684 1.07083 14.9347 -0.00436257 12 1.33044e-05C10.5952 1.33044e-05 9.248 0.240013 7.9952 0.684813L8.36 1.12961C10.312 3.48641 11.9312 5.81601 13.2528 8.19841C15.7216 7.20161 17.6784 5.74401 19.3872 3.65921C19.395 3.64942 19.403 3.63982 19.4112 3.63041L19.9616 3.02241V3.02081Z" fill="#212121"/>
</g>
<defs>
<clipPath id="clip0_53110_20900">
<rect width="24" height="24" fill="white"/>
</clipPath>
</defs>
</svg>
