<svg width="24" height="24" viewBox="0 0 24 24" fill="none" xmlns="http://www.w3.org/2000/svg">
<path d="M12.8 11.8C12.8 15.55 9.93 18.6 6.4 18.6C2.87 18.6 0 15.55 0 11.8C0 8.05 2.87 5 6.4 5C9.93 5 12.8 8.05 12.8 11.8ZM23.2 5.4C22.9878 5.4 22.7843 5.48429 22.6343 5.63431C22.4843 5.78434 22.4 5.98783 22.4 6.2V17.4C22.4 17.6122 22.4843 17.8157 22.6343 17.9657C22.7843 18.1157 22.9878 18.2 23.2 18.2C23.4122 18.2 23.6157 18.1157 23.7657 17.9657C23.9157 17.8157 24 17.6122 24 17.4V6.2C24 5.98783 23.9157 5.78434 23.7657 5.63431C23.6157 5.48429 23.4122 5.4 23.2 5.4ZM17.6 5.4C17.03 5.4 15.96 5.68 15.17 7.53C14.67 8.68 14.4 10.2 14.4 11.8C14.4 13.4 14.67 14.92 15.17 16.07C15.96 17.92 17.03 18.2 17.6 18.2C18.17 18.2 19.24 17.92 20.03 16.07C20.53 14.92 20.8 13.4 20.8 11.8C20.8 10.2 20.53 8.68 20.03 7.53C19.24 5.68 18.17 5.4 17.6 5.4Z" fill="#212121"/>
</svg>
